<svg xmlns="http://www.w3.org/2000/svg" xmlns:xlink="http://www.w3.org/1999/xlink" viewBox="0 0 271.49 39.8"><defs><style>.cls-1{fill:url(#radial-gradient);}.cls-2{fill:url(#radial-gradient-2);}.cls-3{fill:url(#radial-gradient-3);}.cls-4{fill:url(#radial-gradient-4);}</style><radialGradient id="radial-gradient" cx="228.85" cy="0.44" r="34.72" gradientUnits="userSpaceOnUse"><stop offset="0.23" stop-color="#162024"/><stop offset="1" stop-color="#0c1519"/></radialGradient><radialGradient id="radial-gradient-2" cx="7538.35" cy="6661.86" r="34.72" gradientTransform="matrix(-1, 0, 0, 1, 7580.98, -6661.43)" xlink:href="#radial-gradient"/><radialGradient id="radial-gradient-3" cx="138.39" cy="-27.78" r="81.23" gradientUnits="userSpaceOnUse"><stop offset="0" stop-color="#283b3f"/><stop offset="0.62" stop-color="#172529"/><stop offset="0.98" stop-color="#0c1519"/></radialGradient><radialGradient id="radial-gradient-4" cx="143.93" cy="34.2" r="93.03" gradientUnits="userSpaceOnUse"><stop offset="0.52" stop-color="#e6a244"/><stop offset="1" stop-color="#f0c890"/></radialGradient></defs><title>scoreboard</title><g id="Layer_5" data-name="Layer 5"><polyline class="cls-1" points="214.07 39.8 261.53 39.8 271.49 0 224.03 0"/><polyline class="cls-2" points="57.42 39.8 9.96 39.8 0 0 47.46 0"/></g><g id="Layer_3" data-name="Layer 3"><polyline class="cls-3" points="136.6 28.99 226.16 28.99 233.41 0 136.6 0 137.21 0 40.4 0 47.65 28.99 137.21 28.99"/><g id="Layer_4" data-name="Layer 4"><polyline class="cls-4" points="136.6 34 224.91 34 226.16 28.99 136.6 28.99 137.21 28.99 47.65 28.99 48.91 34 137.21 34"/></g></g></svg>