<?xml version="1.0" encoding="UTF-8" standalone="no"?>
<svg
   xmlns:dc="http://purl.org/dc/elements/1.1/"
   xmlns:cc="http://creativecommons.org/ns#"
   xmlns:rdf="http://www.w3.org/1999/02/22-rdf-syntax-ns#"
   xmlns:svg="http://www.w3.org/2000/svg"
   xmlns="http://www.w3.org/2000/svg"
   xmlns:sodipodi="http://sodipodi.sourceforge.net/DTD/sodipodi-0.dtd"
   xmlns:inkscape="http://www.inkscape.org/namespaces/inkscape"
   height="174.2"
   width="174.2"
   sodipodi:docname="runback_logo_light.svg"
   xml:space="preserve"
   viewBox="0 0 174.2 174.2"
   y="0px"
   x="0px"
   id="Layer_1"
   version="1.1"
   inkscape:version="1.0.1 (c497b03c, 2020-09-10)"><metadata
   id="metadata963"><rdf:RDF><cc:Work
       rdf:about=""><dc:format>image/svg+xml</dc:format><dc:type
         rdf:resource="http://purl.org/dc/dcmitype/StillImage" /><dc:title></dc:title></cc:Work></rdf:RDF></metadata><defs
   id="defs961" /><sodipodi:namedview
   pagecolor="#ffffff"
   bordercolor="#666666"
   borderopacity="1"
   objecttolerance="10"
   gridtolerance="10"
   guidetolerance="10"
   inkscape:pageopacity="0"
   inkscape:pageshadow="2"
   inkscape:window-width="1440"
   inkscape:window-height="855"
   id="namedview959"
   showgrid="false"
   fit-margin-top="0"
   fit-margin-left="0"
   fit-margin-right="0"
   fit-margin-bottom="0"
   inkscape:zoom="2.3162375"
   inkscape:cx="3.4069998"
   inkscape:cy="80.091436"
   inkscape:window-x="0"
   inkscape:window-y="23"
   inkscape:window-maximized="0"
   inkscape:current-layer="g956" />
<style
   type="text/css"
   id="style948">
	.st0{fill-rule:evenodd;clip-rule:evenodd;}
	.st1{fill-rule:evenodd;clip-rule:evenodd;fill:none;stroke:#000000;stroke-width:2;stroke-linecap:round;stroke-miterlimit:3;}
	.st2{fill-rule:evenodd;clip-rule:evenodd;fill:none;stroke:#000000;stroke-width:7;stroke-linecap:round;stroke-miterlimit:3;}
</style>
<g
   id="g956"
   transform="translate(-26.5,-27.4)">
	<path
   class="st0"
   d="m 45.1,129.3 c -1.2,-5.3 -1.8,-10.7 -1.8,-16.5 0,-19.4 6.9,-36 20.6,-49.7 13.7,-13.7 30.3,-20.6 49.7,-20.6 0.9,0 1.8,0 2.7,0.1 18.3,0.6 33.9,7.4 47,20.5 13.7,13.7 20.6,30.3 20.6,49.7 0,5.1 -0.5,10 -1.4,14.6 -1.6,-0.2 -3.3,-0.3 -5,-0.3 -8,0.1 -14.8,2.8 -20.6,8 -3.2,-1.1 -6.5,-1.6 -10.1,-1.5 -3.9,0.1 -7.6,0.7 -11,2 -5.5,-5 -12.1,-7.6 -19.6,-7.8 -0.4,0 -0.9,0 -1.3,0 -8,0.1 -14.8,2.8 -20.6,7.9 -3.2,-1 -6.5,-1.5 -10.1,-1.4 -3.9,0 -7.6,0.7 -11,1.9 -5.9,-5.3 -12.9,-7.8 -21,-7.7 -2.5,0 -4.8,0.3 -7.1,0.8 z"
   id="path950"
   style="fill:#000000;fill-opacity:1" />
	<path
   class="st1"
   d="m 45.1,129.3 c 2.3,-0.5 4.7,-0.8 7.1,-0.8 8.1,-0.1 15.1,2.4 21,7.7 3.4,-1.2 7.1,-1.8 11,-1.9 3.6,-0.1 6.9,0.4 10.1,1.4 5.8,-5.2 12.7,-7.8 20.6,-7.9 0.4,0 0.9,0 1.3,0 7.5,0.2 14.1,2.8 19.6,7.8 3.4,-1.2 7.1,-1.9 11,-2 3.5,0 6.9,0.5 10.1,1.5 5.8,-5.2 12.6,-7.9 20.6,-8 1.7,0 3.4,0.1 5,0.3 m -1.8,7.1 c -1,-0.1 -2.1,-0.2 -3.1,-0.2 -5.1,0.1 -9.5,1.5 -13.4,4.2 1.7,1.2 3.4,2.5 5,4.1 0.5,0.4 1,0.9 1.4,1.4 2.1,-1.2 4.5,-1.8 7.2,-1.9 m -7.4,2 c 1.4,1.5 2.6,3.1 3.7,4.8 m -38.3,-13.3 c -2.4,1 -4.7,2.2 -6.8,3.7 -1.5,1.1 -2.9,2.3 -4.3,3.6 -0.5,0.6 -1,1.2 -1.5,1.7 -2.1,2.4 -3.7,4.9 -4.8,7.7 2.5,0.2 4.9,0.7 7.2,1.5 0.9,-1.6 1.9,-3.1 3.1,-4.6 0.3,-0.5 0.7,-0.9 1.1,-1.3 1.4,-1.4 2.9,-2.6 4.5,-3.6 2.1,-1.3 4.3,-2.3 6.8,-3 1.8,-0.4 3.8,-0.7 5.8,-0.7 1.6,0 3.2,0.1 4.7,0.4 2.5,0.4 4.9,1.3 7.1,2.5 1.9,1 3.6,2.4 5.3,4 0.3,0.3 0.6,0.6 1,0.9 1.3,1.4 2.4,2.9 3.2,4.4 1.2,-0.4 2.5,-0.7 3.9,-1 m -46.4,2.1 c 2.4,0.9 4.8,2.1 7,3.6 0.7,-1.4 1.7,-2.7 2.8,-3.9 0.8,-0.8 1.7,-1.5 2.6,-2.1 2.1,-1.4 4.3,-2.3 6.8,-2.7 0.8,-0.1 1.6,-0.2 2.4,-0.2 0.2,0 0.4,0 0.7,0.1 2.5,0 4.9,0.6 7,1.7 1.5,0.8 2.9,1.8 4.2,3 0.9,0.9 1.6,1.8 2.2,2.8 2.1,-1.3 4.4,-2.3 6.8,-3.1 m -49.8,-0.8 c -0.7,-0.1 -1.5,-0.1 -2.2,-0.1 -0.4,0 -0.9,0 -1.3,0 -0.6,0 -1.3,0 -1.9,0.1 -2.6,0.2 -5.1,0.6 -7.5,1.4 -2.3,0.7 -4.6,1.7 -6.7,3 -1.6,1 -3.1,2.1 -4.5,3.4 2.5,0.9 4.9,2 7.2,3.4 3.9,-2.7 8.4,-4.1 13.5,-4.2 0.1,0 0.2,0 0.2,0 0.4,0 0.7,0 1.1,0.1 h 0.1 c 4.8,0.2 9.1,1.6 12.8,4.3 2.1,-1.5 4.3,-2.7 6.8,-3.7 -1,-0.9 -2,-1.8 -3.1,-2.5 m 28.5,-1.4 c -1.6,1 -3.1,2.1 -4.5,3.4 2.3,0.7 4.4,1.7 6.5,2.9 M 135.8,160 c 3.4,-1.3 7.1,-2 11,-2 3.5,0 6.9,0.5 10.1,1.5 m 0,-24.3 c 2.5,0.8 4.9,1.9 7.2,3.4 m -35,0.7 c -3.8,-2.7 -8,-4.2 -12.8,-4.3 -0.4,0 -0.8,0 -1.3,0 -5.1,0 -9.6,1.4 -13.5,4.2 1.7,1.1 3.4,2.5 5,4 0.5,0.5 0.9,1 1.4,1.4 2.2,-1.2 4.7,-1.8 7.5,-1.8 0.3,0 0.6,0 1,0 2.5,0.1 4.9,0.7 7,1.9 m -50.1,-8.5 c -2.4,1 -4.7,2.3 -6.8,3.8 -1.5,1.1 -2.9,2.3 -4.3,3.7 -0.5,0.5 -1,1.1 -1.5,1.6 -1.7,2.1 -3.2,4.2 -4.3,6.6 -0.2,0.4 -0.4,0.8 -0.6,1.2 0.2,0 0.4,0 0.6,0.1 2.3,0.2 4.5,0.7 6.7,1.4 0.9,-1.6 1.9,-3.2 3.1,-4.6 0.4,-0.4 0.8,-0.8 1.2,-1.2 1.4,-1.5 2.8,-2.7 4.4,-3.6 2.1,-1.3 4.4,-2.3 6.8,-2.9 1.9,-0.4 3.8,-0.6 5.9,-0.6 1.6,0 3.2,0.1 4.7,0.3 2.5,0.4 4.9,1.3 7.1,2.6 1.8,1 3.6,2.3 5.3,4 0.3,0.3 0.6,0.6 0.9,0.9 1.3,1.4 2.4,2.9 3.2,4.5 M 63,154.5 c 2.5,0.9 4.9,2 7.1,3.6 0.7,-1.4 1.7,-2.7 2.8,-3.9 0.8,-0.8 1.6,-1.5 2.5,-2.2 2,-1.3 4.3,-2.2 6.8,-2.6 0.8,-0.1 1.6,-0.2 2.4,-0.2 0.2,0 0.5,0 0.7,0 2.5,0 4.8,0.6 7,1.7 1.5,0.7 2.9,1.8 4.2,3.1 0.9,0.8 1.7,1.7 2.3,2.7 m -28.7,1.4 c 1.1,0.7 2.1,1.6 3.1,2.5 3.4,-1.2 7.1,-1.9 11,-1.9 3.6,-0.1 6.9,0.4 10.1,1.4 m 18.7,-7.8 c -1.3,-2.8 -3,-5.3 -5.2,-7.7 m -6.3,-5.4 c -2.3,-1.4 -4.7,-2.6 -7.2,-3.4 m 22.1,47.3 c 1,-5.3 3.2,-9.9 6.9,-14.1 -2.1,-1.2 -4.5,-1.8 -7,-1.9 -0.3,0 -0.6,0 -1,0 -2.7,0 -5.2,0.7 -7.5,1.9 3.8,4.2 6.2,8.9 7.3,14.2 M 71.7,169.3 c 2.1,-1.3 4.4,-2.3 6.8,-2.9 1.9,-0.4 3.8,-0.6 5.9,-0.6 1.6,0 3.2,0.1 4.7,0.4 2.5,0.4 4.9,1.3 7.1,2.5 1.8,1 3.6,2.4 5.3,4 0.3,0.3 0.6,0.6 0.9,0.9 2.6,2.8 4.4,5.9 5.4,9.4 m -6.3,-19.5 c 1.7,1.1 3.4,2.5 5,4 0.5,0.5 0.9,1 1.4,1.4 m -28.6,5.6 c 0.9,-0.3 1.9,-0.6 2.9,-0.7 0.8,-0.1 1.6,-0.2 2.4,-0.2 0.2,0 0.5,0 0.7,0 2.5,0 4.8,0.6 7,1.7 1.5,0.7 2.9,1.8 4.2,3 1,0.9 1.8,1.8 2.4,2.9 0.1,0.2 0.2,0.4 0.4,0.6 m 24.6,0.6 c 0.9,-3.2 2.6,-6.1 4.9,-8.8 0.3,-0.5 0.7,-0.9 1.1,-1.3 1.4,-1.4 2.9,-2.6 4.5,-3.6 2.1,-1.3 4.3,-2.3 6.8,-3 1.8,-0.4 3.8,-0.7 5.8,-0.7 1.6,0 3.2,0.2 4.7,0.5 2.2,0.4 4.2,1 6.2,2 m -24.4,13 c 0.6,-0.9 1.2,-1.7 2,-2.6 0.8,-0.8 1.7,-1.5 2.6,-2.1 2.1,-1.4 4.3,-2.3 6.8,-2.7 0.8,-0.1 1.6,-0.2 2.4,-0.2 0.2,0 0.4,0 0.7,0.1 0.7,0 1.3,0.1 2,0.2 M 123.3,169 c 0.5,-0.6 1,-1.1 1.5,-1.7 1.4,-1.4 2.8,-2.6 4.3,-3.7 M 66.4,140 c -4.1,-3 -8.8,-4.4 -14.1,-4.3 -1.8,0 -3.6,0.2 -5.3,0.6 m 3.1,7.3 c 0.8,-0.1 1.7,-0.2 2.6,-0.2 2.9,0 5.6,0.6 8,1.9 m 5.3,19.3 c 0.1,-0.1 0.3,-0.2 0.4,-0.3 -0.7,-0.5 -1.5,-1 -2.3,-1.4 m 2.3,1.4 c 2.1,-1.5 4.4,-2.7 6.8,-3.7"
   id="path952" />
	<path
   class="st2"
   d="m 172.7,173.6 c -16.3,16.3 -36,24.5 -59.1,24.5 -23.1,0 -42.8,-8.2 -59.1,-24.5 C 38.2,157.3 30,137.6 30,114.5 30,91.4 38.2,71.7 54.5,55.4 c 16.3,-16.3 36,-24.5 59.1,-24.5 23.1,0 42.8,8.2 59.1,24.5 16.3,16.3 24.5,36 24.5,59.1 0,23.1 -8.2,42.8 -24.5,59.1 z"
   id="path954" />
</g>
</svg>
